<svg xmlns="http://www.w3.org/2000/svg" viewBox="0 0 256 256" role="img" aria-label="WireGuard + Transmission">
  <defs>
    <linearGradient id="g" x1="0" y1="0" x2="1" y2="1">
      <stop offset="0" stop-color="#1f6feb"/>
      <stop offset="1" stop-color="#2ea043"/>
    </linearGradient>
  </defs>

  <path d="M128 16l80 32v64c0 56-36 92-80 112-44-20-80-56-80-112V48l80-32z"
        fill="url(#g)" stroke="#0f172a" stroke-width="6"/>

  <rect x="88" y="116" width="80" height="68" rx="10" fill="#0f172a"/>
  <rect x="104" y="90" width="48" height="36" rx="18" fill="#0f172a"/>
  <rect x="112" y="98" width="32" height="28" rx="14" fill="#ffffff"/>

  <path d="M60 168h52l-14-14 8-8 28 28-28 28-8-8 14-14H60z"
        fill="#ffffff"/>
  <path d="M196 120h-52l14-14-8-8-28 28 28 28 8-8-14-14h52z"
        fill="#ffffff"/>

  <circle cx="128" cy="72" r="18" fill="#ffffff" opacity="0.2"/>
</svg>
